PathFileType	4	(X/Y/Z)	outputs\dynamic_markers.trc
DataRate	CameraRate	NumFrames	NumMarkers	Units	OrigDataRate	OrigDataStartFrame	OrigNumFrames
360.000000	360.000000	4	48	m	360.000000	418	669
Frame#	Time	C7			CLAV			LANK			LASI			LBAK			LBHD			LELB			LFHD			LFIN			LFRM			LHEE			LIC			LKNE			LMANK			LMELB			LMKNE			LPSI			LSHO			LTHI			LTIB			LTOE			LUPA			LWRA			LWRB			RANK			RASI			RBAK			RBHD			RELB			RFHD			RFIN			RFRM			RHEE			RIC			RKNE			RMANK			RMELB			RMKNE			RPSI			RSHO			RTHI			RTIB			RTOE			RUPA			RWRA			RWRB			STRN			T10			
		X1	Y1	Z1	X2	Y2	Z2	X3	Y3	Z3	X4	Y4	Z4	X5	Y5	Z5	X6	Y6	Z6	X7	Y7	Z7	X8	Y8	Z8	X9	Y9	Z9	X10	Y10	Z10	X11	Y11	Z11	X12	Y12	Z12	X13	Y13	Z13	X14	Y14	Z14	X15	Y15	Z15	X16	Y16	Z16	X17	Y17	Z17	X18	Y18	Z18	X19	Y19	Z19	X20	Y20	Z20	X21	Y21	Z21	X22	Y22	Z22	X23	Y23	Z23	X24	Y24	Z24	X25	Y25	Z25	X26	Y26	Z26	X27	Y27	Z27	X28	Y28	Z28	X29	Y29	Z29	X30	Y30	Z30	X31	Y31	Z31	X32	Y32	Z32	X33	Y33	Z33	X34	Y34	Z34	X35	Y35	Z35	X36	Y36	Z36	X37	Y37	Z37	X38	Y38	Z38	X39	Y39	Z39	X40	Y40	Z40	X41	Y41	Z41	X42	Y42	Z42	X43	Y43	Z43	X44	Y44	Z44	X45	Y45	Z45	X46	Y46	Z46	X47	Y47	Z47	X48	Y48	Z48	

419	1.161111111111111	0.2174156904220581	1.407620668411255	0.5211511254310608	0.2146714627742767	1.285066366195679	0.4090759456157684	0.005859673954546452	0.07860036939382553	0.5399386286735535	0.3056868314743042	0.9078001976013184	0.5611140727996826	0.2186450958251953	1.261234760284424	0.6666902303695679	0.08336179703474045	1.523564696311951	0.3929642140865326	-0.04305122792720795	0.9476282596588135	0.5422248840332031	0.1852551996707916	1.563428997993469	0.314156174659729	0.08697521686553955	0.7397009134292603	0.3154358863830566	-0.01278845407068729	0.8705693483352661	0.4323817491531372	0.06467899680137634	0.07730524986982346	0.6147942543029785	0.2805789709091187	0.949417769908905	0.656464695930481	0.1397947818040848	0.5277030467987061	0.3595894277095795	0.1221651509404182	0.0573202408850193	0.5383618474006653	0.04019469022750854	0.9401195049285889	0.587411105632782	0.2535209059715271	0.4713759124279022	0.3259881436824799	0.4419732391834259	0.9708232879638672	0.7169991135597229	0.03743770346045494	1.310433864593506	0.5122839212417603	0.1918094307184219	0.6498318314552307	0.4838385879993439	0.08450601249933243	0.4154513478279114	0.3866196870803833	0.0558122880756855	0.06497833132743835	0.3571926951408386	-0.01342946849763393	1.131773829460144	0.5234472155570984	0.08402657508850098	0.7790220975875854	0.3751108348369598	0.003316498827189207	0.7564519047737122	0.3798108100891113	0.7549166679382324	0.1219869405031204	0.08770830184221268	0.5409457683563232	0.9967499971389771	0.4859877228736877	0.4083784520626068	1.316788911819458	0.5849717855453491	0.1715576201677322	1.524981141090393	0.5210070610046387	0.6071207523345947	1.308363676071167	0.1594011783599854	0.2834852635860443	1.57657265663147	0.4376315176486969	0.4069931209087372	1.047828555107117	-0.01712991297245026	0.521282970905304	1.195978879928589	0.06782986968755722	0.7074176669120789	0.1043872237205505	0.1760466396808624	0.5895447134971619	1.062750339508057	0.544627845287323	0.6674588918685913	0.5817911624908447	0.18492691218853	0.6447709798812866	0.08933499455451965	0.08644594997167587	0.6459394097328186	1.243968486785889	0.2017337530851364	0.5389469265937805	0.5534112453460693	0.2162755578756332	0.5289770364761353	0.9986161589622498	0.6857101917266846	0.3530232906341553	1.397560358047485	0.3772088885307312	0.6672296524047852	0.7820670604705811	0.3514871597290039	0.7174613475799561	0.4316299855709076	0.1459094882011414	0.6908329129219055	0.1334512233734131	-0.09244915843009949	0.483719527721405	1.354123950004578	0.2592598795890808	0.5024488568305969	1.071627020835876	0.04594457149505615	0.534369945526123	1.11248242855072	-0.01912209764122963	0.2708263695240021	1.103282332420349	0.4251913726329803	0.3566792905330658	1.227553963661194	0.6563922762870789	
420	1.163888888888889	0.2192594707012177	1.405724406242371	0.5203625559806824	0.216609925031662	1.283101320266724	0.4083341360092163	0.006239400245249271	0.07883130013942719	0.5398222804069519	0.3077310621738434	0.906135082244873	0.5605543255805969	0.2205608487129211	1.259330868721008	0.6661994457244873	0.08491967618465424	1.52135694026947	0.3923431038856506	-0.04191244393587112	0.9455414414405823	0.5433729887008667	0.1867311894893646	1.561299085617065	0.3134416341781616	0.08643709868192673	0.7323650121688843	0.3204473257064819	-0.01226512901484966	0.8663389682769775	0.4348529279232025	0.06519842147827148	0.07757452875375748	0.614626944065094	0.2823301553726196	0.9476076364517212	0.6560418605804443	0.1405382752418518	0.5275137424468994	0.3589314520359039	0.1224893629550934	0.05727905780076981	0.5380419492721558	0.04116281494498253	0.9382180571556091	0.5883637666702271	0.2539373934268951	0.4709909558296204	0.3248728811740875	0.4435738027095795	0.9691141843795776	0.7168619632720947	0.03945035487413406	1.3079833984375	0.5117301344871521	0.1929532438516617	0.6494147777557373	0.4834819734096527	0.08511399477720261	0.4153984487056732	0.3861485123634338	0.05573576688766479	0.06490069627761841	0.3570334315299988	-0.01166199147701263	1.129588603973389	0.5233532786369324	0.08372457325458527	0.7729684114456177	0.3790754675865173	0.002957912627607584	0.7510795593261719	0.3843577802181244	0.7613267302513123	0.1198570281267166	0.08500359952449799	0.5432645082473755	0.9948333501815796	0.4861389994621277	0.4102482199668884	1.315133094787598	0.5842164754867554	0.1732940673828125	1.522860646247864	0.5201917886734009	0.6082119941711426	1.30874228477478	0.1578331887722015	0.2850049734115601	1.574590921401978	0.4368092119693756	0.4127383232116699	1.045397043228149	-0.01985396444797516	0.5243098735809326	1.195416927337646	0.06564776599407196	0.7144970893859863	0.1013024300336838	0.1734741479158401	0.5916617512702942	1.060808539390564	0.5447738766670227	0.6731613278388977	0.5787912607192993	0.1867756545543671	0.6514413952827454	0.08687599003314972	0.0841652974486351	0.6477925181388855	1.244887232780457	0.1999739110469818	0.544880747795105	0.550276517868042	0.2177461683750153	0.5307250618934631	0.9969648122787476	0.6857365369796753	0.3544324636459351	1.395903348922729	0.3765592873096466	0.6713833808898926	0.7795369625091553	0.3532040119171143	0.7235773205757141	0.4289559125900269	0.146585077047348	0.6959754228591919	0.132950633764267	-0.09458938241004944	0.484794020652771	1.353526592254639	0.2582302391529083	0.5079625844955444	1.070613026618958	0.04307295754551888	0.5388580560684204	1.112570285797119	-0.02171122655272484	0.2730258405208588	1.101341962814331	0.4246154725551605	0.358645498752594	1.225876927375793	0.6559104919433594	
421	1.166666666666667	0.2220678329467773	1.402788162231445	0.519201934337616	0.2195814251899719	1.279962301254272	0.4073741436004639	0.006779766641557217	0.07916855812072754	0.5397112369537354	0.3108934760093689	0.9035745859146118	0.5599082112312317	0.2237082719802856	1.256470203399658	0.665286660194397	0.08718855679035187	1.518033027648926	0.3912707567214966	-0.0401681661605835	0.9424051642417908	0.5450512766838074	0.1889646798372269	1.558172345161438	0.3124046623706818	0.08554328978061676	0.7214602828025818	0.3280857801437378	-0.01181347295641899	0.8600567579269409	0.4386592209339142	0.0659824013710022	0.07795298844575882	0.6143585443496704	0.2849587202072144	0.9449040293693542	0.6553197503089905	0.1415750086307526	0.5272212028503418	0.357997715473175	0.1229411289095879	0.05720033869147301	0.5376013517379761	0.0428595170378685	0.9353916645050049	0.5900284647941589	0.2545182108879089	0.4703063368797302	0.3233126997947693	0.4460161328315735	0.9666447043418884	0.7167156934738159	0.04242457076907158	1.304283142089844	0.5108922719955444	0.194747269153595	0.6486481428146362	0.4829010367393494	0.0860540047287941	0.415388822555542	0.38544100522995	0.05561488494277	0.0647955909371376	0.3567885756492615	-0.009076868183910847	1.126321196556091	0.523301899433136	0.08319626748561859	0.7639316916465759	0.385373592376709	0.002160698641091585	0.7429818511009216	0.3914326429367065	0.7710409164428711	0.1168354898691177	0.08100904524326324	0.5469035506248474	0.9920628070831299	0.4864054024219513	0.4130361676216125	1.312665224075317	0.58322674036026	0.1757798194885254	1.519627213478088	0.5191534161567688	0.6098305583000183	1.309286236763	0.15548375248909	0.2872333228588104	1.571631550788879	0.4355992376804352	0.4216630160808563	1.041908502578735	-0.0240129716694355	0.5288928747177124	1.19464910030365	0.06236891075968742	0.7252587676048279	0.09681513905525208	0.1696913242340088	0.5949283242225647	1.057908892631531	0.5449711084365845	0.6817388534545898	0.5743926763534546	0.1896481215953827	0.6614946126937866	0.08344180881977081	0.08093705773353577	0.6505936980247498	1.246262073516846	0.1973604112863541	0.5538222193717957	0.5455889701843262	0.2199661582708359	0.5334006547927856	0.9944347143173218	0.6859630942344666	0.3565720319747925	1.393407464027405	0.3754235506057739	0.6775465607643127	0.7757052183151245	0.356053352355957	0.7328243255615234	0.4250765442848206	0.1476181894540787	0.7037503123283386	0.1323115229606628	-0.09769032895565033	0.4864814877510071	1.352627038955688	0.2567133903503418	0.516186535358429	1.069444894790649	0.0388169102370739	0.5457398891448975	1.112866163253784	-0.02583439834415913	0.2765706479549408	1.098387122154236	0.4237997233867645	0.3615283071994781	1.223279595375061	0.6551820039749146	
422	1.169444444444445	0.2249035239219666	1.399920582771301	0.5180622339248657	0.2227519750595093	1.277012586593628	0.4063657224178314	0.007285998668521643	0.07949873805046082	0.539598822593689	0.314156711101532	0.9008557796478271	0.5589642524719238	0.2266187369823456	1.253654837608337	0.6645367741584778	0.08969847112894058	1.514744520187378	0.3902555108070374	-0.03849157691001892	0.9393025636672974	0.5466855764389038	0.1912777572870255	1.555089950561523	0.3113572597503662	0.08443225920200348	0.7108059525489807	0.3360195755958557	-0.01117491628974676	0.8537945747375488	0.4426205158233643	0.06680567562580109	0.07824332267045975	0.6140581965446472	0.2879899442195892	0.9423136115074158	0.6545528769493103	0.1426279991865158	0.5269566178321838	0.3570833504199982	0.1233675554394722	0.05709848925471306	0.5371601581573486	0.04441704973578453	0.9324472546577454	0.5914897918701172	0.2552227079868317	0.4696874618530273	0.3217206001281738	0.4484058022499084	0.9641143083572388	0.7165605425834656	0.04551469162106514	1.300620317459106	0.5099026560783386	0.1966126263141632	0.6479224562644958	0.482127457857132	0.08689802885055542	0.4154091477394104	0.3848452866077423	0.05549729615449905	0.06467954814434052	0.3565541803836823	-0.00636976957321167	1.123056888580322	0.5230864882469177	0.082609623670578	0.7550671100616455	0.3920186460018158	0.001259950455278158	0.7351714372634888	0.3986300230026245	0.7809008359909058	0.1140435487031937	0.07705903798341751	0.5505403876304626	0.9892817735671997	0.4867205917835236	0.4158394932746887	1.310282349586487	0.582252562046051	0.1783834993839264	1.516401767730713	0.5180424451828003	0.6115961670875549	1.309792041778564	0.1531840115785599	0.2896047234535217	1.568649530410767	0.4344824552536011	0.4307789206504822	1.038735866546631	-0.02821046859025955	0.5337578654289246	1.193944692611694	0.05898617953062057	0.7360837459564209	0.09255822002887726	0.1660157442092896	0.5982396602630615	1.054996490478516	0.5451061725616455	0.6902328133583069	0.5700851678848267	0.1926299780607224	0.6713945269584656	0.08039620518684387	0.07764600217342377	0.6532055139541626	1.247724175453186	0.1949706822633743	0.5626373887062073	0.5410615801811218	0.2221434712409973	0.5360333323478699	0.9919286966323853	0.6860665678977966	0.3588127493858337	1.391006946563721	0.3742683231830597	0.683901309967041	0.7720661163330078	0.3588756918907166	0.7421064376831055	0.421202689409256	0.1488608866930008	0.7116134762763977	0.1318860650062561	-0.1006129905581474	0.4882080852985382	1.3517746925354	0.2551712393760681	0.5242418050765991	1.068476319313049	0.03458908200263977	0.5528579950332642	1.113301396369934	-0.02982673980295658	0.2802331149578094	1.095457196235657	0.4229616224765778	0.3645679950714111	1.220744609832764	0.654449462890625	
